<?xml version="1.0" standalone="no"?>
<!DOCTYPE svg PUBLIC "-//W3C//DTD SVG 20010904//EN"
 "http://www.w3.org/TR/2001/REC-SVG-20010904/DTD/svg10.dtd">
<svg version="1.0" xmlns="http://www.w3.org/2000/svg"
 width="706.000000pt" height="688.000000pt" viewBox="0 0 706.000000 688.000000"
 preserveAspectRatio="xMidYMid meet">

<g transform="translate(0.000000,688.000000) scale(0.100000,-0.100000)"
fill="#000000" stroke="none">
<path d="M2629 5227 c-24 -13 -57 -43 -74 -66 l-30 -43 0 -1676 c0 -1672 0
-1677 20 -1712 12 -19 40 -48 64 -65 l43 -30 896 -2 897 -3 45 23 c26 14 58
42 75 66 l30 43 0 1671 0 1672 -21 40 c-11 22 -40 54 -63 70 l-43 30 -897 3
-897 2 -45 -23z m235 -106 c25 -28 17 -79 -16 -104 -24 -18 -30 -19 -58 -7
-50 21 -64 95 -21 120 27 16 77 11 95 -9z m1606 -1681 l0 -1450 -910 0 -910 0
0 1450 0 1450 910 0 910 0 0 -1450z"/>
<path d="M2780 4495 l0 -115 499 0 c274 0 513 3 530 6 18 4 45 20 62 36 51 51
33 139 -35 172 -30 14 -93 16 -545 16 l-511 0 0 -115z"/>
<path d="M2780 4020 l0 -110 671 2 671 3 29 33 c43 47 41 102 -5 148 l-34 34
-666 0 -666 0 0 -110z"/>
<path d="M2782 3548 l3 -113 505 -3 c278 -2 524 0 547 3 87 12 132 86 98 158
-32 68 -21 67 -619 67 l-537 0 3 -112z"/>
<path d="M2780 3070 l0 -111 386 3 386 3 29 33 c42 47 41 108 -3 151 l-32 31
-383 0 -383 0 0 -110z"/>
<path d="M3877 3010 c-129 -23 -253 -117 -309 -235 l-30 -65 -379 0 -379 0 0
-115 0 -115 385 0 c339 0 385 -2 385 -15 0 -55 103 -181 187 -231 229 -134
547 -6 610 246 28 111 22 202 -21 295 -43 93 -143 184 -242 218 -54 20 -149
27 -207 17z m204 -107 c127 -57 209 -195 196 -333 -17 -194 -197 -335 -384
-301 -143 27 -244 125 -273 263 -33 161 67 333 223 384 59 19 180 13 238 -13z"/>
<path d="M4000 2620 c-45 -60 -83 -110 -85 -110 -2 0 -23 34 -47 75 l-43 75
-52 0 c-29 0 -53 -3 -53 -6 0 -10 194 -314 200 -313 6 0 273 365 278 380 2 5
-23 9 -56 9 l-60 0 -82 -110z"/>
<path d="M414 960 c3 -109 11 -203 21 -250 9 -41 18 -83 20 -92 2 -9 9 -26 15
-38 6 -12 13 -31 15 -42 9 -43 102 -216 140 -260 11 -13 22 -27 24 -33 8 -20
158 -164 213 -204 l57 -41 2641 0 2641 0 57 41 c56 41 220 199 207 199 -4 0 6
14 23 31 17 18 38 46 46 63 8 17 24 41 36 53 11 13 19 23 16 23 -3 0 8 29 24
65 16 36 27 65 24 65 -2 0 3 14 12 31 9 17 18 43 20 57 3 14 12 52 20 86 8 36
16 134 19 241 l5 180 -19 -50 c-64 -170 -148 -302 -267 -422 -140 -141 -317
-241 -520 -295 l-89 -23 -2255 0 -2255 0 -89 23 c-374 99 -648 349 -787 717
l-19 50 4 -175z"/>
</g>
</svg>
