<?xml version="1.0" standalone="no"?>
<!DOCTYPE svg PUBLIC "-//W3C//DTD SVG 20010904//EN"
 "http://www.w3.org/TR/2001/REC-SVG-20010904/DTD/svg10.dtd">
<svg version="1.0" xmlns="http://www.w3.org/2000/svg"
 width="1024.000000pt" height="253.000000pt" viewBox="0 0 1024.000000 253.000000"
 preserveAspectRatio="xMidYMid meet">

<g transform="translate(0.000000,253.000000) scale(0.100000,-0.100000)"
fill="#000000" stroke="none">
<path d="M815 2361 c-8 -13 35 -51 57 -51 10 0 18 -5 18 -11 0 -6 7 -8 16 -5
8 3 13 2 10 -3 -3 -4 7 -14 22 -22 15 -8 45 -26 67 -40 21 -15 49 -26 61 -24
15 1 21 -2 17 -11 -3 -8 3 -17 13 -21 11 -3 35 -16 54 -28 19 -12 58 -34 85
-50 28 -15 69 -38 93 -52 30 -18 40 -21 36 -10 -3 8 -1 18 5 22 6 3 11 -1 11
-9 0 -9 5 -16 11 -16 6 0 8 -7 5 -16 -4 -9 -2 -13 5 -8 6 4 14 2 18 -3 14 -21
70 -53 84 -47 9 3 18 -2 21 -13 4 -10 31 -32 61 -50 52 -30 54 -31 61 -11 6
19 6 19 21 -2 8 -12 12 -24 9 -27 -11 -12 68 -52 91 -46 24 5 53 -16 53 -40 0
-15 40 -37 67 -37 9 0 13 -3 10 -7 -8 -7 110 -77 130 -78 7 0 18 -7 25 -16 7
-9 40 -31 73 -49 33 -18 78 -44 99 -58 23 -14 56 -25 78 -26 32 0 38 -4 35
-18 -4 -12 11 -26 50 -50 84 -51 99 -89 94 -237 -1 -23 -2 -23 -14 -8 -11 16
-14 14 -32 -20 -10 -21 -26 -46 -34 -56 -11 -13 -12 -20 -3 -29 7 -7 12 -18
12 -25 0 -17 -30 -17 -30 0 -1 6 -7 1 -15 -13 -17 -29 -19 -44 -6 -36 21 13
41 -7 41 -40 0 -32 -2 -34 -33 -34 -18 0 -38 -5 -44 -11 -9 -9 -11 -6 -6 12 4
20 1 19 -16 -9 -12 -18 -21 -41 -21 -52 0 -11 -9 -24 -20 -30 -14 -7 -20 -21
-20 -42 0 -25 3 -29 12 -20 18 18 26 15 30 -14 3 -25 14 -18 181 125 97 84
174 157 171 163 -9 15 27 49 46 43 22 -7 52 26 40 44 -5 8 -3 19 3 27 10 10
15 9 29 -3 16 -14 19 -13 35 16 10 17 23 29 30 27 7 -3 15 4 18 14 3 10 13 20
21 22 28 6 284 231 284 250 0 10 -4 18 -9 18 -12 0 -19 66 -9 84 5 8 4 17 -2
21 -6 4 -8 15 -5 26 4 11 2 19 -4 19 -6 0 -11 -4 -11 -10 0 -5 -5 -10 -11 -10
-6 0 -9 9 -6 20 5 19 2 20 -30 14 -30 -6 -35 -4 -30 9 4 11 -5 18 -38 26 -24
6 -55 11 -68 11 -14 0 -30 7 -37 15 -7 8 -26 15 -43 15 -17 0 -38 6 -46 13
-24 20 -162 62 -169 51 -4 -5 -22 -10 -41 -11 -30 -2 -33 0 -29 21 4 22 -2 25
-82 49 -47 15 -95 29 -105 33 -14 6 -16 4 -11 -7 4 -8 1 -7 -6 2 -18 22 -83
39 -119 32 -29 -5 -42 10 -16 20 14 6 -24 10 -65 7 -20 -1 -28 3 -28 14 0 21
-16 21 -24 0 -3 -8 -10 -13 -15 -9 -6 3 -8 12 -5 19 4 10 -15 21 -68 37 -40
12 -134 42 -208 67 -103 33 -145 43 -177 39 -37 -4 -43 -2 -43 14 0 14 -7 19
-30 19 -16 0 -30 4 -30 9 0 6 -56 27 -100 37 -3 0 -18 6 -33 12 -16 7 -55 12
-88 12 -55 0 -81 14 -41 22 9 2 -28 18 -83 36 -62 20 -109 29 -124 25 -15 -4
-22 -2 -18 4 9 14 -32 31 -94 39 -38 5 -50 4 -45 -5 5 -7 -1 -11 -14 -11 -11
0 -23 7 -26 15 -7 17 -30 20 -39 6z m615 -331 c0 -5 -4 -10 -10 -10 -5 0 -10
5 -10 10 0 6 5 10 10 10 6 0 10 -4 10 -10z m850 -134 c0 -9 -30 -14 -35 -6 -4
6 3 10 14 10 12 0 21 -2 21 -4z m225 -67 c11 -16 1 -19 -13 -3 -7 8 -8 14 -3
14 5 0 13 -5 16 -11z m-657 -27 c2 -7 -3 -12 -12 -12 -9 0 -16 7 -16 16 0 17
22 14 28 -4z m232 -151 c0 -29 -15 -33 -16 -5 -1 13 2 24 7 24 5 0 9 -9 9 -19z
m315 -190 c-6 -5 -25 10 -25 20 0 5 6 4 14 -3 8 -7 12 -15 11 -17z m510 -150
c-3 -6 -11 -11 -16 -11 -5 0 -4 6 3 14 14 16 24 13 13 -3z m-345 -191 c0 -27
-3 -30 -30 -30 -27 0 -30 3 -30 30 0 27 3 30 30 30 27 0 30 -3 30 -30z m-226
-262 c4 -16 2 -28 -3 -28 -15 0 -33 40 -26 57 7 20 20 7 29 -29z"/>
<path d="M958 1943 c-20 -21 -61 -58 -92 -82 -31 -24 -56 -46 -56 -50 0 -4 25
-7 55 -7 37 1 55 5 55 14 0 6 4 12 10 12 6 0 6 -9 0 -25 -5 -14 -7 -25 -5 -25
9 0 35 59 35 80 0 11 6 20 13 20 20 0 41 50 27 64 -5 5 -10 15 -10 20 0 6 5 5
12 -2 16 -16 28 -15 28 3 0 27 -36 16 -72 -22z"/>
<path d="M767 1780 c-37 -29 -63 -80 -47 -90 9 -6 6 -14 -10 -30 -17 -17 -24
-19 -30 -10 -4 7 -13 9 -20 5 -7 -4 -20 -8 -30 -9 -9 -1 -38 -20 -64 -43 -35
-32 -46 -48 -46 -71 0 -36 -19 -52 -32 -28 -11 20 -28 21 -28 1 0 -8 -5 -15
-10 -15 -24 0 -68 -45 -80 -81 -7 -21 -19 -39 -26 -39 -7 0 -15 -9 -19 -19
-10 -33 -31 -44 -54 -29 -18 11 -24 10 -43 -10 -18 -18 -19 -22 -6 -22 9 0 18
6 21 13 2 7 8 8 13 3 5 -5 4 -11 -3 -13 -7 -3 -13 -14 -13 -25 0 -16 -4 -19
-22 -14 -43 13 -53 11 -56 -12 -3 -17 -8 -21 -22 -17 -16 5 -24 -3 -29 -30 -4
-19 -43 -53 -56 -49 -15 6 -39 -31 -30 -46 3 -6 1 -10 -6 -10 -22 0 -1 -72 32
-106 30 -31 108 -62 127 -50 6 3 12 -1 16 -9 6 -17 36 -21 36 -5 0 6 10 1 22
-10 13 -11 34 -23 48 -26 14 -3 41 -11 60 -18 19 -6 54 -11 78 -10 36 1 42 -2
42 -19 0 -11 3 -17 6 -14 4 3 15 2 25 -4 15 -8 20 -5 25 16 3 14 10 25 15 25
16 0 22 -29 10 -44 -9 -11 -7 -15 11 -19 13 -3 51 -14 86 -25 34 -11 60 -17
57 -12 -6 10 50 21 70 14 17 -7 20 -24 5 -24 -5 0 -10 -4 -10 -9 0 -11 128
-54 140 -46 4 3 10 0 12 -6 2 -7 20 -13 39 -13 18 -1 45 -9 59 -18 14 -9 48
-22 75 -29 28 -6 55 -16 61 -20 6 -5 15 -4 22 3 12 12 46 3 38 -11 -6 -10 15
-20 54 -27 14 -3 39 -11 55 -18 57 -26 100 -37 103 -26 6 17 30 11 45 -10 8
-11 17 -17 21 -13 4 4 11 1 16 -7 8 -13 10 -12 10 3 0 24 12 21 40 -8 24 -25
93 -51 109 -41 5 3 11 -1 15 -9 3 -8 13 -15 22 -15 8 0 56 -14 105 -31 50 -17
99 -29 109 -26 11 3 21 -1 24 -9 6 -17 36 -19 36 -2 0 6 3 8 7 5 3 -4 12 -2
19 4 16 13 67 -18 60 -37 -3 -8 -4 -14 -3 -14 2 0 40 -13 85 -29 70 -24 83
-26 80 -12 -2 9 -15 17 -31 19 -26 3 -28 6 -25 40 2 24 8 36 16 34 8 -1 11 2
7 8 -3 6 -10 8 -14 5 -5 -2 -23 9 -41 25 -19 17 -39 30 -46 30 -6 0 -17 7 -24
15 -16 19 -40 19 -40 0 0 -8 -4 -15 -10 -15 -5 0 -10 11 -10 25 0 17 -9 29
-30 40 l-30 16 0 -36 c0 -28 -4 -35 -20 -35 -16 0 -20 7 -20 35 0 25 4 35 16
35 23 0 6 20 -30 35 -18 8 -57 30 -86 49 -59 39 -72 44 -64 22 3 -9 -4 -15
-20 -18 -18 -4 -26 -1 -26 8 0 12 -19 19 -42 15 -5 0 -8 4 -8 9 0 6 5 10 10
10 6 0 10 9 10 21 0 15 -5 19 -19 14 -13 -4 -20 0 -24 16 -3 12 -10 18 -17 14
-6 -4 -22 5 -35 19 -13 14 -31 26 -40 26 -8 0 -15 3 -15 8 0 4 -17 16 -37 27
-21 11 -54 29 -74 42 -20 12 -40 19 -43 16 -4 -4 -13 2 -21 14 -8 11 -37 30
-65 42 -27 12 -50 26 -50 31 0 6 -4 10 -9 10 -5 0 -40 18 -78 39 -48 29 -70
36 -75 28 -5 -8 -8 -7 -8 5 0 17 -60 58 -85 58 -8 0 -26 12 -40 26 -15 15 -32
23 -41 20 -8 -3 -12 -2 -9 4 6 10 -48 42 -64 38 -5 -2 -17 6 -25 17 -16 20
-16 20 -22 -2 -3 -13 -10 -23 -15 -23 -15 0 -20 20 -9 41 11 19 10 20 -10 9
-26 -14 -56 4 -31 19 11 7 10 14 -3 39 -20 39 -20 99 -1 147 9 20 13 45 10 56
-4 10 -2 20 4 20 6 1 16 2 23 3 6 0 20 16 30 34 10 18 25 43 33 56 15 22 14
24 -7 29 -26 7 -21 15 13 20 13 2 29 13 34 24 6 12 16 27 22 34 21 27 26 59 9
59 -11 0 -16 -9 -16 -30 0 -28 -3 -30 -35 -30 -23 0 -35 5 -35 14 0 7 -10 16
-22 19 l-22 6 23 25 c32 34 23 53 -12 26z m-167 -300 c0 -5 9 -10 20 -10 16 0
20 -7 20 -30 0 -27 -3 -30 -30 -30 -28 0 -30 2 -30 40 0 22 5 40 10 40 6 0 10
-4 10 -10z m-160 -160 c0 -5 9 -10 20 -10 16 0 20 -7 20 -30 0 -27 -3 -30 -30
-30 -28 0 -30 2 -30 40 0 22 5 40 10 40 6 0 10 -4 10 -10z m-276 -142 c-7 -10
-34 -10 -34 0 0 4 5 13 12 20 9 9 14 9 19 0 4 -7 5 -16 3 -20z m576 2 c0 -5
-4 -10 -10 -10 -5 0 -10 5 -10 10 0 6 5 10 10 10 6 0 10 -4 10 -10z m-420 -60
c0 -27 -3 -30 -30 -30 -27 0 -30 3 -30 30 0 27 3 30 30 30 27 0 30 -3 30 -30z
m-237 -15 c7 -18 -6 -27 -27 -19 -19 7 -21 20 -3 27 20 9 25 8 30 -8z m203
-190 c17 -16 14 -18 -10 -9 -9 3 -16 10 -16 15 0 13 9 11 26 -6z m54 5 c0 -5
-4 -10 -10 -10 -5 0 -10 5 -10 10 0 6 5 10 10 10 6 0 10 -4 10 -10z m970 -50
c0 -5 -2 -10 -4 -10 -3 0 -8 5 -11 10 -3 6 -1 10 4 10 6 0 11 -4 11 -10z m53
-292 c-2 -5 -13 -8 -24 -8 -18 0 -27 29 -13 43 7 7 42 -26 37 -35z m-103 22
c0 -5 -4 -10 -10 -10 -5 0 -10 5 -10 10 0 6 5 10 10 10 6 0 10 -4 10 -10z
m602 -55 c6 -30 7 -30 -23 -4 -19 16 -21 22 -9 29 19 12 27 5 32 -25z m-254
-23 c2 -7 -3 -12 -12 -12 -9 0 -16 7 -16 16 0 17 22 14 28 -4z m172 -77 c0 -8
-4 -15 -10 -15 -5 0 -10 7 -10 15 0 8 5 15 10 15 6 0 10 -7 10 -15z m60 -10
c0 -8 -4 -15 -9 -15 -5 0 -14 7 -21 15 -10 13 -9 15 9 15 12 0 21 -6 21 -15z"/>
<path d="M677 1685 c3 -8 9 -12 14 -9 12 7 11 11 -5 17 -10 4 -13 1 -9 -8z"/>
<path d="M1488 1554 c-20 -9 -38 -24 -41 -36 -4 -13 -11 -19 -20 -15 -17 6
-57 -34 -81 -80 -9 -18 -19 -59 -22 -92 -6 -49 -4 -63 10 -77 13 -12 14 -19 6
-24 -9 -6 -9 -13 -1 -29 16 -28 16 -27 13 16 -13 159 -13 173 -3 173 6 0 11
-18 11 -40 l0 -40 40 0 40 0 0 -60 c0 -33 4 -60 10 -60 16 0 11 -19 -10 -40
-25 -25 -40 -19 -33 13 5 21 5 21 -13 4 -15 -14 -16 -21 -7 -35 6 -9 20 -16
32 -15 12 2 24 -4 27 -12 4 -8 10 -12 16 -9 5 3 12 -3 15 -15 3 -12 13 -21 25
-21 14 0 18 5 14 15 -7 20 11 19 31 -1 13 -12 18 -13 24 -3 4 8 3 19 -3 26 -6
7 -6 13 -2 13 5 0 15 -10 23 -21 10 -17 10 -23 1 -29 -20 -12 4 -20 44 -13 33
5 62 23 37 23 -6 0 -11 7 -11 15 0 19 27 19 37 0 7 -12 15 -11 47 11 34 24 36
27 20 39 -16 11 -15 13 13 19 43 10 56 45 58 151 1 75 -2 97 -20 130 -12 22
-27 39 -34 37 -7 -1 -19 2 -26 8 -7 6 -27 8 -43 5 -17 -3 -33 -1 -37 4 -3 6
11 13 31 17 26 5 39 3 45 -7 4 -7 11 -11 14 -7 8 8 -44 44 -89 63 -45 19 -140
18 -188 -1z m300 -138 c3 -13 -1 -17 -14 -14 -11 2 -20 11 -22 22 -3 13 1 17
14 14 11 -2 20 -11 22 -22z"/>
<path d="M280 1355 c-10 -12 -10 -15 4 -15 9 0 16 7 16 15 0 8 -2 15 -4 15 -2
0 -9 -7 -16 -15z"/>
<path d="M2735 1150 c-3 -5 -1 -10 4 -10 6 0 11 5 11 10 0 6 -2 10 -4 10 -3 0
-8 -4 -11 -10z"/>
<path d="M2197 743 c-12 -27 -28 -54 -34 -61 -19 -20 -16 -32 8 -32 13 0 25
11 35 35 9 22 23 37 39 41 31 8 27 30 -5 26 -18 -2 -21 2 -17 18 9 34 -2 22
-26 -27z"/>
<path d="M738 743 c7 -3 16 -2 19 1 4 3 -2 6 -13 5 -11 0 -14 -3 -6 -6z"/>
<path d="M2220 334 c0 -10 6 -14 14 -11 17 7 41 -18 32 -32 -13 -21 14 -20 29
1 12 15 19 19 22 11 3 -7 11 -13 20 -13 21 0 11 -23 -16 -36 l-22 -11 22 -6
c13 -4 29 -1 36 5 25 21 9 49 -45 79 -59 33 -92 37 -92 13z"/>
</g>
</svg>
