<?xml version="1.0" encoding="UTF-8"?>
<svg id="Camada_1" data-name="Camada 1" xmlns="http://www.w3.org/2000/svg" version="1.1" viewBox="0 0 500 500">
  <defs>
    <style>
      .cls-1 {
        fill: #3f1672;
        stroke-width: 0px;
      }
    </style>
  </defs>
  <path class="cls-1" d="M392.9,239.7c-5.3-21.5-13.3-44.4-20.2-58.9-9.2-19-9.6-36-11.7-40.8-18.6-44.2-36.9-77.9-56.8-72.6-16.3,4.4-58.4,26.6-60.9,53.1-.7,6.9,1.1,17.2,13.5,26.6,16.5,12.4,25.9,20.4,32.1,25.7,5,4.4,8.2,6.9,11.2,8.5,2.1,10.8.7,53.1-3,93.4l-1.1,8.9c-3,0-12.4-5.7-17.9-8.7-22.9-12.8-60.7-33.9-102.8-.5-8-.2-24.3-1.6-35.7,0-7.1.9-23.1,6.4-35.7,19.2-4.8,4.8-10.8,14.4-12.4,22.7-1.4,6.9-2.3,15.8-2.1,24.7v.5c0,4.1.7,8.5,1.6,12.4,3.7,16,10.5,37.8,31.1,55.7,15.8,14,35.3,19,57.7,15.6,5.7-.9,47.2,7.3,52.7,7.8,19.7,1.4,62.8-11.9,81.8-23.1,9.2-5.5,23.1-6,35-8,21.5-4.1,45.8-8.7,57.5-33.4,1.8-3.7,2.7-8.2,3.4-14,2.5-27-7.8-77-16.9-114.1h0l-.5-.7ZM335.8,104.3c0,.5.5.7.7,1.1,0-.5-.5-.7-.7-1.1h0Z"/>
</svg>