<?xml version="1.0" standalone="no"?>
<!DOCTYPE svg PUBLIC "-//W3C//DTD SVG 20010904//EN"
 "http://www.w3.org/TR/2001/REC-SVG-20010904/DTD/svg10.dtd">
<svg version="1.0" xmlns="http://www.w3.org/2000/svg"
 width="675.000000pt" height="674.000000pt" viewBox="0 0 675.000000 674.000000"
 preserveAspectRatio="xMidYMid meet">

<g transform="translate(0.000000,674.000000) scale(0.100000,-0.100000)"
fill="#000000" stroke="none">
<path d="M3595 5044 c-100 -43 -214 -115 -286 -182 -114 -105 -155 -220 -114
-319 22 -51 29 -58 215 -208 91 -73 180 -146 199 -164 l34 -32 -7 -232 c-7
-239 -29 -553 -39 -564 -4 -3 -23 3 -44 14 -345 180 -387 195 -543 196 -122 0
-227 -34 -335 -109 -39 -27 -42 -28 -170 -25 -151 2 -211 -10 -318 -66 -145
-77 -218 -184 -239 -353 -19 -154 13 -308 98 -472 27 -52 63 -98 124 -158 135
-135 230 -171 440 -169 100 1 162 -5 310 -30 216 -38 250 -37 446 14 149 39
195 56 344 125 91 42 126 53 260 76 306 52 436 119 510 263 48 95 46 287 -6
583 -68 388 -151 689 -253 918 -43 95 -64 164 -81 260 -12 71 -96 267 -168
395 -141 251 -224 304 -377 239z"/>
<path d="M181 995 c0 -112 9 -231 24 -300 14 -69 38 -152 52 -185 42 -95 78
-166 89 -178 7 -6 16 -21 19 -32 3 -11 11 -20 16 -20 5 0 9 -5 9 -10 0 -19
136 -164 219 -233 l45 -37 2672 0 c2362 0 2673 2 2684 15 7 8 18 15 24 15 11
0 177 158 206 195 8 11 31 45 50 75 19 30 37 57 40 60 6 5 27 48 64 130 55
124 86 308 85 510 l0 115 -27 -70 c-143 -362 -408 -597 -787 -699 l-80 -21
-2255 0 -2255 0 -80 21 c-381 102 -650 343 -790 706 l-24 63 0 -120z"/>
</g>
</svg>
