<?xml version="1.0" encoding="UTF-8"?>
<svg id="Camada_1" data-name="Camada 1" xmlns="http://www.w3.org/2000/svg" version="1.1" viewBox="0 0 300 300">
  <defs>
    <style>
      .cls-1 {
        fill: #efefef;
        stroke-width: 0px;
      }
    </style>
  </defs>
  <g>
    <g>
      <rect class="cls-1" x="72.27" y="381.01" width="155.28" height="10.28"/>
      <path class="cls-1" d="M287.15,381.01h-9.02v10.28h9.02c1.89,0,3.43-1.53,3.43-3.43v-3.43c0-1.89-1.53-3.43-3.43-3.43Z"/>
      <path class="cls-1" d="M240.25,351.88h-6.16c-1.89,0-3.43,1.53-3.43,3.43v61.67c0,1.89,1.53,3.43,3.43,3.43h6.16c1.89,0,3.43-1.54,3.43-3.43v-61.67c0-.64-.17-1.23-.47-1.74h0c-.6-1.01-1.7-1.68-2.95-1.68Z"/>
      <path class="cls-1" d="M255.98,351.88h-6.16c-1.89,0-3.43,1.53-3.43,3.43v61.67c0,1.89,1.53,3.43,3.43,3.43h6.16c1.89,0,3.43-1.54,3.43-3.43v-61.67c0-.64-.17-1.23-.47-1.74h0c-.6-1.01-1.7-1.68-2.95-1.68Z"/>
      <path class="cls-1" d="M271.71,351.88h-6.16c-1.89,0-3.43,1.53-3.43,3.43v61.67c0,1.89,1.53,3.43,3.43,3.43h6.16c1.89,0,3.43-1.54,3.43-3.43v-61.67c0-.64-.17-1.23-.47-1.74h0c-.6-1.01-1.7-1.68-2.95-1.68Z"/>
      <path class="cls-1" d="M12.68,391.28h9.02v-10.28h-9.02c-1.89,0-3.43,1.53-3.43,3.43v3.43c0,1.89,1.53,3.43,3.43,3.43Z"/>
      <path class="cls-1" d="M59.57,351.88c-1.26,0-2.36.68-2.95,1.68h0c-.3.51-.48,1.11-.48,1.74v61.67c0,1.89,1.53,3.43,3.43,3.43h6.16c1.89,0,3.43-1.54,3.43-3.43v-61.67c0-1.89-1.53-3.43-3.43-3.43h-6.16Z"/>
      <path class="cls-1" d="M43.85,351.88c-1.26,0-2.36.68-2.95,1.68h0c-.3.51-.47,1.11-.47,1.74v61.67c0,1.89,1.53,3.43,3.43,3.43h6.16c1.89,0,3.43-1.54,3.43-3.43v-61.67c0-1.89-1.53-3.43-3.43-3.43h-6.16Z"/>
      <path class="cls-1" d="M28.12,420.4h6.16c1.89,0,3.43-1.54,3.43-3.43v-61.67c0-1.89-1.53-3.43-3.43-3.43h-6.16c-1.26,0-2.36.68-2.95,1.68h0c-.3.51-.47,1.11-.47,1.74v61.67c0,1.89,1.53,3.43,3.43,3.43Z"/>
    </g>
    <path class="cls-1" d="M141.43,466.08h16.97c.88,0,1.59.71,1.59,1.59v45.5c0,.88-.71,1.59-1.59,1.59h-16.97c-.88,0-1.59-.71-1.59-1.59v-45.51c0-.88.71-1.59,1.59-1.59Z"/>
    <path class="cls-1" d="M118.36,451.66h63.11c6.15,0,11.14,4.99,11.14,11.14v1.59c0,6.15-4.99,11.14-11.14,11.14h-63.11c-6.15,0-11.14-4.99-11.14-11.14v-1.59c0-6.15,4.99-11.14,11.14-11.14Z"/>
    <path class="cls-1" d="M211.41,523.25h-122.99c-3.51,0-6.36-2.85-6.36-6.36v-145.04c0-3.51,2.85-6.36,6.36-6.36s6.36,2.85,6.36,6.36c0,0-.06,131.25,0,133.93.06,2.68,1.45,4.74,4.24,4.74h102.71c2.58,0,3.32-1.95,3.32-4.54v-134.13c0-3.51,2.85-6.36,6.36-6.36s6.36,2.85,6.36,6.36v145.04c0,3.51-2.85,6.36-6.36,6.36Z"/>
    <g>
      <path class="cls-1" d="M102.67,415.21h-9.02v10.28h9.02c1.89,0,3.43-1.53,3.43-3.43v-3.43c0-1.89-1.53-3.43-3.43-3.43Z"/>
      <path class="cls-1" d="M197.16,425.49h9.02v-10.28h-9.02c-1.89,0-3.43,1.53-3.43,3.43v3.43c0,1.89,1.53,3.43,3.43,3.43Z"/>
    </g>
  </g>
  <path class="cls-1" d="M521.01,56.64c-26.98,0-47.76,18.94-53.65,40.34-5.89-21.4-26.67-40.34-53.65-40.34-32.71,0-59.31,32.02-59.31,66.92,0,57.05,57.05,103.09,112.96,119.81,55.91-16.72,112.96-62.76,112.96-119.81,0-34.9-26.61-66.92-59.31-66.92ZM557.22,146.94h-53c-2.14,0-4.02-1.43-4.59-3.5l-4.75-17.46-17.36,69.41c-.52,2.07-2.38,3.53-4.52,3.53h-.07c-2.13,0-4.01-1.43-4.58-3.49l-17.12-61.99-12.43,46.05c-.55,2.04-2.42,3.52-4.44,3.52h-.2c-2.25-.06-4.12-1.59-4.59-3.74l-7.13-32.34h-44.93c-.97,0-1.8-.7-1.96-1.65l-1.08-6.39c-.13-.76.46-1.46,1.23-1.46h50.56c2.21,0,4.16,1.57,4.64,3.73l3.64,17.29,12.06-44.29c.56-2.06,2.44-3.5,4.57-3.51,2.14,0,4.03,1.43,4.59,3.49l16.94,61.35,17.38-69.46c.52-2.1,2.4-3.58,4.56-3.6,2.17,0,4.07,1.44,4.63,3.5l8.58,31.5h51.17c.77,0,1.36.69,1.23,1.45l-1.08,6.39c-.16.95-.99,1.65-1.96,1.65Z"/>
  <g>
    <path class="cls-1" d="M274.71,172.68c-4.23-.07-8.46-.12-12.69-.18-.08-8.39-.69-12.32-.94-13.59-.07-.34-.13-.85-.19-1.01-.34-1.02-1.69-1.8-3.32-1.82-.86-.06-1.72-.12-2.59-.19-.8,0-1.38.18-1.8.48-.18-2.33-.37-4.13-.52-5.37-.04-.31-.27-2.38-.31-2.57-.26-1.61-1.73-2.8-3.35-2.88-1.63-.08-4.13-.21-4.13-.2-1.47-.02-2.73.89-3.23,2.18-.48-1.3-1.71-2.23-3.19-2.25-1.38-.01-2.75-.03-4.13-.04-1.9-.02-3.45,1.49-3.48,3.38,0,0-.96,9.23-1.23,24.86-7.98-.08-15.82-.16-23.62-.21,1.33-9.1,3.95-37.64-11.64-56.92-6.38-7.89-14.89-13.19-25.39-15.86-.1.19-.19.39-.3.58-.68,1.22-1.44,2.38-2.29,3.48-4.12,5.31-9.64,8.38-15.55,8.62-.1,0-.19,0-.29,0h-.07s-.07,0-.07,0c0,0-.78-.01-.91-.02-5.89-.28-11.39-3.35-15.48-8.66-.79-1.03-1.51-2.12-2.15-3.25-8.71,2.72-16.12,7.39-22.13,14.02-17.68,19.51-17.1,49.57-16.54,58.01-7.57.06-15.17.13-22.91.21-.28-15.62-1.24-24.86-1.24-24.86-.02-1.89-1.57-3.4-3.48-3.38-1.38.02-2.75.03-4.13.05-1.47.01-2.71.95-3.18,2.25-.51-1.29-1.76-2.19-3.24-2.18,0,0-2.5.13-4.13.2-1.63.08-3.1,1.27-3.35,2.88-.03.19-.27,2.26-.31,2.57-.15,1.24-.34,3.04-.52,5.37-.41-.3-.99-.49-1.8-.48-.86.06-1.72.12-2.59.19-1.63.02-2.98.8-3.32,1.82-.06.17-.12.68-.19,1.02-.25,1.27-.86,5.2-.94,13.59-4.23.06-8.46.12-12.69.18-.41.01-.76.25-.91.61-.05.12-.42,1.16-.37,4.41.05,3.25.46,4.32.53,4.46.17.32.51.53.89.52,4.23-.07,8.45-.12,12.68-.18.28,7.53.89,11.45,1.22,13.08.13.66.25,1.3.31,1.46.36,1.02,1.73,1.76,3.36,1.74.86.04,1.72.08,2.58.12.8-.01,1.37-.21,1.77-.53.11,1.02.21,1.95.31,2.77.19,1.55.68,5.03.73,5.24.33,1.56,1.65,2.61,3.38,2.7,1.74.09,4.1.11,4.1.11,1.46-.02,2.69-.96,3.16-2.25.5,1.29,1.75,2.19,3.21,2.18,1.37-.01,2.73-.03,4.1-.04,1.88-.02,3.4-1.56,3.38-3.45,0,0,.76-9.26.73-24.89,8.79-.09,17.4-.17,25.98-.23,1.37.97,3.07,1.46,4.86,1.26,1.27-.14,2.43-.61,3.4-1.32,2.43-.01,4.87-.03,7.32-.04-.46,1.38-.87,2.78-1.24,4.18-2.65,10.08-2.83,18.5-3.6,28.13-.49,6.2.89,18.61,6.54,18.61s7.34-3.9,8.01-7.62c1.1-6.11.7-13.06,3.89-23.32,2.18-7.02,5.83-14.27,10.01-20.06,4.19,0,8.44-.01,12.75-.01,5.77,0,11.42,0,17,.02,4.33,5.78,8.12,13.03,10.3,20.05,3.18,10.25,2.26,16.34,3.19,23.8.47,3.75,2.09,7.14,7.29,7.14s7.13-9.74,7.43-16.86c.5-11.62-.43-18.52-3.09-28.61-.48-1.81-1.05-3.63-1.68-5.44,1.89.01,3.78.02,5.67.03.8.59,1.74,1.02,2.78,1.23.47.09.94.14,1.41.14,1.5,0,2.93-.48,4.1-1.32,8.88.06,17.79.14,26.88.24-.04,15.63.72,24.89.72,24.89-.02,1.88,1.5,3.43,3.38,3.45,1.36.01,2.73.03,4.1.05,1.46.02,2.71-.89,3.21-2.18.47,1.3,1.7,2.23,3.16,2.25,0,0,2.36,0,4.1-.1,1.73-.09,3.05-1.14,3.38-2.7.04-.21.54-3.69.73-5.24.1-.82.21-1.74.31-2.77.41.32.98.52,1.78.53.86-.04,1.72-.08,2.58-.12,1.63.02,3-.72,3.36-1.74.06-.16.18-.8.31-1.46.33-1.63.93-5.56,1.22-13.08,4.23.06,8.45.12,12.68.18.39,0,.72-.21.89-.52.07-.13.6-1.02.66-4.46.06-3.44-.44-4.29-.49-4.41-.15-.35-.5-.6-.91-.61ZM126.68,146c-1.09,5.75-7.27,15.78-12.04,27.13-2.43.01-4.85.02-7.26.04-.4-3.86-1.4-21.72,12.89-37.44,1.52-1.67,3.19-3.08,4.98-4.28,1.52,4.71,2.35,9.67,1.42,14.55ZM148.25,173.05c-2.11,0-4.21,0-6.29,0,2.79-2.44,5.61-3.99,8.24-4.22,2.63.23,5.5,1.78,8.38,4.22-3.41,0-6.84,0-10.32,0ZM191.63,173.16c-1.93-.01-3.86-.02-5.79-.03-4.88-11.29-11.07-21.57-12.12-27.14-1.06-5.6-.08-11.08,1.61-16.17,3.06,1.56,5.72,3.63,7.95,6.38,13.59,16.75,8.82,35.21,8.35,36.96Z"/>
    <path class="cls-1" d="M149.69,109.28c.1,0,.73.01.73.01.07,0,.14,0,.21,0,9.38-.39,16.87-10.43,16.87-21.39s-7.61-18.92-17.08-19.19h0c-.07-.01-.14,0-.22,0-.07,0-.14,0-.22,0h0c-9.47.28-17.08,8.16-17.08,19.21s7.45,20.95,16.79,21.39Z"/>
  </g>
  <g>
    <g>
      <circle class="cls-1" cx="87.61" cy="-180.81" r="20.38" transform="translate(153.51 8.99) rotate(-45)"/>
      <path class="cls-1" d="M96.96-158.16h-18.71c-15.07,0-27.29,12.22-27.29,27.29v40.99c0,3.74,3.04,6.78,6.78,6.78s6.57-2.81,6.77-6.4l.48-41.31h2.24V-36.75c0,5.18,4.2,9.37,9.37,9.37h0c5.18,0,9.37-4.2,9.37-9.37v-46.35h3.27v46.35c0,5.18,4.2,9.37,9.37,9.37s9.37-4.2,9.37-9.37v-94.06h2.24l7.5,42.02c.2,3.59,3.17,6.4,6.77,6.4s6.78-3.04,6.78-6.78l-7.03-41.7c0-15.07-12.22-27.29-27.29-27.29Z"/>
    </g>
    <g>
      <circle class="cls-1" cx="211.35" cy="-180.81" r="20.38" transform="translate(31.91 31.71) rotate(-9.28)"/>
      <path class="cls-1" d="M201.99-158.16h18.71c15.07,0,27.29,12.22,27.29,27.29v40.99c0,3.74-3.04,6.78-6.78,6.78s-6.57-2.81-6.77-6.4l-.48-41.31h-2.24V-36.75c0,5.18-4.2,9.37-9.37,9.37h0c-5.18,0-9.37-4.2-9.37-9.37v-46.35h-3.27v46.35c0,5.18-4.2,9.37-9.37,9.37s-9.37-4.2-9.37-9.37v-94.06h-2.24l-7.5,42.02c-.2,3.59-3.17,6.4-6.77,6.4s-6.78-3.04-6.78-6.78l7.03-41.7c0-15.07,12.22-27.29,27.29-27.29Z"/>
    </g>
    <g>
      <circle class="cls-1" cx="149.75" cy="-129.62" r="13.43" transform="translate(144.91 68.38) rotate(-47.72)"/>
      <path class="cls-1" d="M155.92-113.58h-12.33c-9.93,0-17.99,8.05-17.99,17.99l-4.47,6.31c0,2.47,2,4.47,4.47,4.47s4.33-1.85,4.46-4.22l4.78-6.52h1.48v61.99c0,3.41,2.77,6.18,6.18,6.18h0c3.41,0,6.18-2.77,6.18-6.18v-30.55h2.15v30.55c0,3.41,2.77,6.18,6.18,6.18s6.18-2.77,6.18-6.18v-61.99h1.48l5.75,7.8c.13,2.37,2.09,4.22,4.46,4.22s4.47-2,4.47-4.47l-5.43-7.59c0-9.93-8.05-17.99-17.99-17.99Z"/>
    </g>
  </g>
</svg>