<?xml version="1.0" encoding="UTF-8"?>
<svg id="Camada_1" data-name="Camada 1" xmlns="http://www.w3.org/2000/svg" version="1.1" viewBox="0 0 300 300">
  <defs>
    <style>
      .cls-1 {
        fill: #efefef;
        stroke-width: 0px;
      }
    </style>
  </defs>
  <g>
    <g>
      <rect class="cls-1" x="72.27" y="93.44" width="155.28" height="10.28"/>
      <path class="cls-1" d="M287.15,93.44h-9.02v10.28h9.02c1.89,0,3.43-1.53,3.43-3.43v-3.43c0-1.89-1.53-3.43-3.43-3.43Z"/>
      <path class="cls-1" d="M240.25,64.32h-6.16c-1.89,0-3.43,1.53-3.43,3.43v61.67c0,1.89,1.53,3.43,3.43,3.43h6.16c1.89,0,3.43-1.54,3.43-3.43v-61.67c0-.64-.17-1.23-.47-1.74h0c-.6-1.01-1.7-1.68-2.95-1.68Z"/>
      <path class="cls-1" d="M255.98,64.32h-6.16c-1.89,0-3.43,1.53-3.43,3.43v61.67c0,1.89,1.53,3.43,3.43,3.43h6.16c1.89,0,3.43-1.54,3.43-3.43v-61.67c0-.64-.17-1.23-.47-1.74h0c-.6-1.01-1.7-1.68-2.95-1.68Z"/>
      <path class="cls-1" d="M271.71,64.32h-6.16c-1.89,0-3.43,1.53-3.43,3.43v61.67c0,1.89,1.53,3.43,3.43,3.43h6.16c1.89,0,3.43-1.54,3.43-3.43v-61.67c0-.64-.17-1.23-.47-1.74h0c-.6-1.01-1.7-1.68-2.95-1.68Z"/>
      <path class="cls-1" d="M12.68,103.71h9.02v-10.28h-9.02c-1.89,0-3.43,1.53-3.43,3.43v3.43c0,1.89,1.53,3.43,3.43,3.43Z"/>
      <path class="cls-1" d="M59.57,64.32c-1.26,0-2.36.68-2.95,1.68h0c-.3.51-.48,1.11-.48,1.74v61.67c0,1.89,1.53,3.43,3.43,3.43h6.16c1.89,0,3.43-1.54,3.43-3.43v-61.67c0-1.89-1.53-3.43-3.43-3.43h-6.16Z"/>
      <path class="cls-1" d="M43.85,64.32c-1.26,0-2.36.68-2.95,1.68h0c-.3.51-.47,1.11-.47,1.74v61.67c0,1.89,1.53,3.43,3.43,3.43h6.16c1.89,0,3.43-1.54,3.43-3.43v-61.67c0-1.89-1.53-3.43-3.43-3.43h-6.16Z"/>
      <path class="cls-1" d="M28.12,132.84h6.16c1.89,0,3.43-1.54,3.43-3.43v-61.67c0-1.89-1.53-3.43-3.43-3.43h-6.16c-1.26,0-2.36.68-2.95,1.68h0c-.3.51-.47,1.11-.47,1.74v61.67c0,1.89,1.53,3.43,3.43,3.43Z"/>
    </g>
    <path class="cls-1" d="M141.43,178.51h16.97c.88,0,1.59.71,1.59,1.59v45.5c0,.88-.71,1.59-1.59,1.59h-16.97c-.88,0-1.59-.71-1.59-1.59v-45.51c0-.88.71-1.59,1.59-1.59Z"/>
    <path class="cls-1" d="M118.36,164.09h63.11c6.15,0,11.14,4.99,11.14,11.14v1.59c0,6.15-4.99,11.14-11.14,11.14h-63.11c-6.15,0-11.14-4.99-11.14-11.14v-1.59c0-6.15,4.99-11.14,11.14-11.14Z"/>
    <path class="cls-1" d="M211.41,235.68h-122.99c-3.51,0-6.36-2.85-6.36-6.36V84.28c0-3.51,2.85-6.36,6.36-6.36s6.36,2.85,6.36,6.36c0,0-.06,131.25,0,133.93.06,2.68,1.45,4.74,4.24,4.74h102.71c2.58,0,3.32-1.95,3.32-4.54V84.28c0-3.51,2.85-6.36,6.36-6.36s6.36,2.85,6.36,6.36v145.04c0,3.51-2.85,6.36-6.36,6.36Z"/>
    <g>
      <path class="cls-1" d="M102.67,127.64h-9.02v10.28h9.02c1.89,0,3.43-1.53,3.43-3.43v-3.43c0-1.89-1.53-3.43-3.43-3.43Z"/>
      <path class="cls-1" d="M197.16,137.92h9.02v-10.28h-9.02c-1.89,0-3.43,1.53-3.43,3.43v3.43c0,1.89,1.53,3.43,3.43,3.43Z"/>
    </g>
  </g>
  <path class="cls-1" d="M502.96,64.32c-24.76,0-43.83,17.39-49.24,37.02-5.4-19.64-24.47-37.02-49.23-37.02-30.02,0-54.44,29.39-54.44,61.41,0,52.36,52.36,94.61,103.67,109.96,51.31-15.35,103.67-57.6,103.67-109.96,0-32.03-24.42-61.41-54.44-61.41ZM536.19,147.19h-48.64c-1.97,0-3.69-1.31-4.21-3.21l-4.36-16.02-15.93,63.7c-.48,1.9-2.19,3.24-4.15,3.24h-.07c-1.95,0-3.68-1.32-4.2-3.2l-15.71-56.89-11.41,42.27c-.51,1.87-2.22,3.23-4.07,3.23h-.19c-2.07-.05-3.78-1.46-4.21-3.43l-6.55-29.68h-41.24c-.89,0-1.65-.64-1.8-1.52l-.99-5.86c-.12-.7.42-1.34,1.13-1.34h46.4c2.03,0,3.82,1.44,4.26,3.42l3.34,15.87,11.07-40.65c.51-1.89,2.24-3.22,4.2-3.22,1.97,0,3.69,1.32,4.22,3.2l15.55,56.31,15.95-63.75c.48-1.92,2.2-3.28,4.18-3.3,1.99,0,3.73,1.32,4.25,3.21l7.88,28.91h46.96c.71,0,1.25.63,1.13,1.33l-.99,5.86c-.15.88-.91,1.52-1.8,1.52Z"/>
  <g>
    <path class="cls-1" d="M-33.56,177.27c-4.59-.07-9.19-.13-13.78-.2-.09-9.11-.75-13.38-1.02-14.76-.07-.36-.15-.92-.21-1.1-.37-1.11-1.84-1.95-3.61-1.98-.94-.07-1.87-.14-2.81-.2-.87-.01-1.5.19-1.95.52-.2-2.53-.4-4.49-.56-5.83-.04-.34-.3-2.59-.33-2.79-.28-1.75-1.88-3.04-3.64-3.13-1.77-.08-4.48-.22-4.48-.22-1.6-.02-2.96.97-3.51,2.36-.52-1.41-1.86-2.43-3.46-2.44-1.49-.02-2.99-.03-4.48-.05-2.06-.02-3.75,1.62-3.77,3.67,0,0-1.04,10.03-1.34,27-8.67-.09-17.18-.17-25.66-.23,1.44-9.88,4.29-40.89-12.65-61.82-6.93-8.57-16.17-14.32-27.58-17.23-.11.21-.21.42-.32.62-.74,1.32-1.57,2.59-2.49,3.78-4.47,5.77-10.48,9.1-16.89,9.37-.1,0-.21,0-.31.01h-.07s-.08,0-.08,0c0,0-.84-.01-.99-.02-6.39-.3-12.37-3.64-16.82-9.41-.86-1.12-1.64-2.3-2.34-3.53-9.46,2.95-17.51,8.03-24.03,15.23-19.2,21.19-18.57,53.84-17.97,63.01-8.22.06-16.48.14-24.88.23-.3-16.97-1.34-27-1.34-27-.02-2.05-1.71-3.69-3.77-3.67-1.49.02-2.99.03-4.48.05-1.6.02-2.94,1.04-3.46,2.44-.55-1.4-1.91-2.38-3.51-2.36,0,0-2.72.14-4.48.22-1.77.09-3.36,1.37-3.64,3.13-.03.21-.29,2.46-.33,2.79-.16,1.34-.37,3.3-.56,5.83-.45-.33-1.08-.53-1.95-.52-.94.07-1.87.14-2.81.2-1.77.02-3.23.87-3.61,1.97-.06.19-.13.73-.21,1.1-.27,1.38-.94,5.64-1.02,14.76-4.59.07-9.19.13-13.78.2-.45.01-.82.27-.99.66-.06.13-.45,1.26-.4,4.79.06,3.53.5,4.7.58,4.84.19.34.55.57.97.57,4.59-.07,9.18-.13,13.77-.2.31,8.18.97,12.44,1.32,14.21.14.72.27,1.41.34,1.58.39,1.11,1.88,1.92,3.65,1.89.93.04,1.87.09,2.8.13.87-.01,1.49-.23,1.93-.57.12,1.11.23,2.12.34,3.01.21,1.69.74,5.46.79,5.69.36,1.7,1.79,2.84,3.67,2.94,1.88.1,4.45.12,4.45.12,1.59-.02,2.92-1.04,3.43-2.45.55,1.4,1.9,2.38,3.49,2.36,1.48-.02,2.97-.03,4.45-.05,2.05-.02,3.69-1.7,3.67-3.75,0,0,.83-10.06.79-27.04,9.54-.1,18.89-.18,28.22-.25,1.49,1.05,3.34,1.59,5.28,1.37,1.38-.15,2.64-.67,3.69-1.43,2.64-.02,5.29-.03,7.95-.04-.5,1.5-.95,3.02-1.35,4.54-2.88,10.94-3.07,20.1-3.91,30.56-.54,6.74.96,20.21,7.1,20.21s7.97-4.24,8.7-8.28c1.19-6.63.76-14.19,4.22-25.33,2.37-7.63,6.33-15.5,10.87-21.78,4.55,0,9.16-.01,13.85-.01,6.27,0,12.4,0,18.46.02,4.7,6.28,8.82,14.16,11.19,21.78,3.46,11.14,2.46,17.75,3.47,25.85.51,4.07,2.27,7.75,7.92,7.75s7.74-10.58,8.07-18.32c.54-12.62-.47-20.12-3.36-31.07-.52-1.96-1.14-3.94-1.82-5.91,2.05.01,4.11.02,6.16.03.87.64,1.89,1.11,3.02,1.34.51.1,1.03.15,1.53.15,1.63,0,3.18-.52,4.46-1.43,9.65.07,19.32.15,29.2.26-.04,16.98.79,27.03.79,27.03-.02,2.05,1.62,3.73,3.67,3.75,1.48.02,2.97.03,4.45.05,1.59.02,2.94-.97,3.49-2.36.51,1.41,1.85,2.43,3.43,2.44,0,0,2.57,0,4.45-.11,1.88-.1,3.32-1.24,3.67-2.94.05-.23.59-4.01.79-5.69.11-.89.22-1.89.34-3,.44.34,1.06.56,1.93.57.93-.04,1.87-.09,2.8-.13,1.77.02,3.26-.78,3.65-1.89.06-.17.19-.87.34-1.58.35-1.77,1.01-6.04,1.32-14.21,4.59.06,9.18.13,13.77.2.42,0,.78-.22.97-.57.08-.14.66-1.11.71-4.84.06-3.73-.48-4.66-.53-4.79-.16-.38-.54-.66-.98-.66ZM-194.35,148.29c-1.18,6.24-7.9,17.14-13.07,29.47-2.64.01-5.27.03-7.89.04-.44-4.19-1.52-23.59,14.01-40.67,1.65-1.82,3.46-3.34,5.41-4.65,1.65,5.11,2.55,10.5,1.55,15.8ZM-170.92,177.67c-2.3,0-4.57,0-6.83,0,3.03-2.65,6.1-4.33,8.95-4.58,2.85.25,5.98,1.93,9.1,4.58-3.7,0-7.43,0-11.21,0ZM-123.81,177.8c-2.09-.01-4.19-.02-6.29-.03-5.3-12.26-12.02-23.43-13.16-29.47-1.15-6.08-.08-12.04,1.75-17.57,3.32,1.7,6.21,3.95,8.63,6.93,14.76,18.19,9.58,38.24,9.07,40.14Z"/>
    <path class="cls-1" d="M-169.36,108.41c.11,0,.79.01.79.01.08,0,.15,0,.23,0,10.19-.43,18.33-11.33,18.33-23.24s-8.26-20.55-18.55-20.85h0c-.08-.01-.16,0-.24,0-.08,0-.16,0-.24,0h0c-10.29.31-18.55,8.86-18.55,20.86s8.09,22.75,18.24,23.23Z"/>
  </g>
  <g>
    <g>
      <circle class="cls-1" cx="87.61" cy="-172.03" r="20.38" transform="translate(147.3 11.56) rotate(-45)"/>
      <path class="cls-1" d="M96.96-149.38h-18.71c-15.07,0-27.29,12.22-27.29,27.29v40.99c0,3.74,3.04,6.78,6.78,6.78s6.57-2.81,6.77-6.4l.48-41.31h2.24V-27.97c0,5.18,4.2,9.37,9.37,9.37h0c5.18,0,9.37-4.2,9.37-9.37v-46.35h3.27V-27.97c0,5.18,4.2,9.37,9.37,9.37s9.37-4.2,9.37-9.37v-94.06h2.24l7.5,42.02c.2,3.59,3.17,6.4,6.77,6.4s6.78-3.04,6.78-6.78l-7.03-41.7c0-15.07-12.22-27.29-27.29-27.29Z"/>
    </g>
    <g>
      <circle class="cls-1" cx="211.35" cy="-172.03" r="20.38" transform="translate(30.5 31.82) rotate(-9.28)"/>
      <path class="cls-1" d="M201.99-149.38h18.71c15.07,0,27.29,12.22,27.29,27.29v40.99c0,3.74-3.04,6.78-6.78,6.78s-6.57-2.81-6.77-6.4l-.48-41.31h-2.24V-27.97c0,5.18-4.2,9.37-9.37,9.37h0c-5.18,0-9.37-4.2-9.37-9.37v-46.35h-3.27V-27.97c0,5.18-4.2,9.37-9.37,9.37s-9.37-4.2-9.37-9.37v-94.06h-2.24l-7.5,42.02c-.2,3.59-3.17,6.4-6.77,6.4s-6.78-3.04-6.78-6.78l7.03-41.7c0-15.07,12.22-27.29,27.29-27.29Z"/>
    </g>
    <g>
      <circle class="cls-1" cx="149.75" cy="-120.85" r="13.43" transform="translate(138.42 71.25) rotate(-47.72)"/>
      <path class="cls-1" d="M155.92-104.8h-12.33c-9.93,0-17.99,8.05-17.99,17.99l-4.47,6.31c0,2.47,2,4.47,4.47,4.47s4.33-1.85,4.46-4.22l4.78-6.52h1.48V-24.78c0,3.41,2.77,6.18,6.18,6.18h0c3.41,0,6.18-2.77,6.18-6.18v-30.55h2.15v30.55c0,3.41,2.77,6.18,6.18,6.18s6.18-2.77,6.18-6.18v-61.99h1.48l5.75,7.8c.13,2.37,2.09,4.22,4.46,4.22s4.47-2,4.47-4.47l-5.43-7.59c0-9.93-8.05-17.99-17.99-17.99Z"/>
    </g>
  </g>
</svg>